<?xml version="1.0" encoding="UTF-8"?>
<svg id="Calque_1" xmlns="http://www.w3.org/2000/svg" version="1.1" viewBox="0 0 186 240">
  <!-- Generator: Adobe Illustrator 30.1.0, SVG Export Plug-In . SVG Version: 2.1.1 Build 136)  -->
  <defs>
    <style>
      .st0 {
        fill: #fff;
      }
    </style>
  </defs>
  <polygon class="st0" points="158.44 0 186 0 186 .71 113.55 110.38 147.13 110.41 147.18 129.56 100.89 129.59 28.24 240 0 240 0 0 .24 0 .24 239.96 72.66 130.1 39.09 130.07 39.08 110.92 85.32 110.9 158.44 0"/>
  <g>
    <polygon points="158.44 0 85.32 110.9 39.08 110.92 39.09 130.07 72.66 130.1 .24 239.96 .24 0 158.44 0"/>
    <polygon points="186 .71 186 240 28.24 240 100.89 129.59 147.18 129.56 147.13 110.41 113.55 110.38 186 .71"/>
  </g>
</svg>