<?xml version="1.0" encoding="utf-8"?>
<!-- Uploaded to: SVG Repo, www.svgrepo.com, Generator: SVG Repo Mixer Tools -->
<svg fill="#000000" width="800px" height="800px" viewBox="0 0 32 32" version="1.1" xmlns="http://www.w3.org/2000/svg">
<title>pinterest</title>
<path d="M9.313 23.75l-0.156 0.563c-0.219 0.906-0.719 1.75-1.156 2.438 1.063 0.281 2.094 0.438 3.188 0.438 3.094 0 5.875-1.219 7.938-3.25 2.031-2.031 3.281-4.844 3.281-7.938s-1.25-5.906-3.281-7.938c-2.063-2.031-4.844-3.281-7.938-3.281s-5.875 1.25-7.906 3.281c-2.063 2.031-3.281 4.844-3.281 7.938 0 2.313 0.656 4.438 1.875 6.188 1.188 1.75 2.875 3.188 4.813 4.031-0.031-0.781 0.031-1.656 0.219-2.5 0.031-0.25 0.125-0.625 0.25-1.125 0.094-0.438 0.25-1.063 0.438-1.875 0.188-0.781 0.438-1.813 0.719-3.125-0.094-0.188-0.156-0.375-0.188-0.594-0.125-0.406-0.188-0.781-0.156-1.188 0-1.625 0.938-2.906 2.188-2.906 1.031 0 1.5 0.781 1.5 1.688 0 0.5-0.156 1.094-0.375 1.813-0.25 0.75-0.469 1.406-0.625 2.156-0.156 0.594 0 1.125 0.344 1.531 0.344 0.375 0.875 0.625 1.438 0.625 1.063 0 1.938-0.656 2.563-1.75s1-2.594 1-4.219c0-1.219-0.406-2.25-1.219-3.031s-1.969-1.219-3.469-1.219c-1.688 0-3.063 0.594-4.031 1.594s-1.5 2.344-1.5 3.781c0 0.906 0.281 1.594 0.781 2.156 0.156 0.25 0.219 0.344 0.156 0.625-0.031 0.094-0.094 0.25-0.125 0.438-0.094 0.406-0.125 0.938-0.688 0.75-1.563-0.625-2.281-2.375-2.281-4.313 0-1.594 0.656-3.313 2-4.656 1.344-1.375 3.375-2.313 6-2.313 2.156 0 3.938 0.75 5.188 1.969 1.25 1.188 1.906 2.813 1.906 4.438 0 2.219-0.594 4.125-1.656 5.5s-2.594 2.188-4.375 2.188c-1.219 0-2.344-0.625-2.75-1.406-0.188 0.688-0.313 1.188-0.406 1.563-0.094 0.406-0.156 0.75-0.219 0.938z"></path>
</svg>